<?xml version="1.0" encoding="iso-8859-1"?>
<!-- Generator: Adobe Illustrator 19.0.0, SVG Export Plug-In . SVG Version: 6.00 Build 0)  -->
<svg version="1.1" id="Layer_1" xmlns="http://www.w3.org/2000/svg" xmlns:xlink="http://www.w3.org/1999/xlink" x="0px" y="0px"
	 viewBox="0 0 512 512" style="enable-background:new 0 0 512 512;" xml:space="preserve">
<path style="fill:#A5A5A5;" d="M512,77.913v33.391H0V77.913c0-24.588,19.933-44.522,44.522-44.522h422.957
	C492.068,33.391,512,53.325,512,77.913z"/>
<path style="fill:#777777;" d="M397.913,66.226v1.113c0,4.61-3.738,8.348-8.348,8.348c-4.61,0-8.348-3.738-8.348-8.348v-1.113
	c0-4.61,3.738-8.348,8.348-8.348C394.175,57.878,397.913,61.616,397.913,66.226z M422.957,57.878c-4.61,0-8.348,3.738-8.348,8.348
	v1.113c0,4.61,3.738,8.348,8.348,8.348c4.61,0,8.348-3.738,8.348-8.348v-1.113C431.304,61.616,427.567,57.878,422.957,57.878z
	 M456.348,57.878c-4.61,0-8.348,3.738-8.348,8.348v1.113c0,4.61,3.738,8.348,8.348,8.348s8.348-3.738,8.348-8.348v-1.113
	C464.696,61.616,460.958,57.878,456.348,57.878z"/>
<path style="fill:#FFE6AE;" d="M512,100.174v311.652c0,24.588-19.933,44.522-44.522,44.522H44.522
	C19.933,456.348,0,436.414,0,411.826V100.174h66.783V22.261C66.783,9.966,76.749,0,89.043,0h89.043
	c12.295,0,22.261,9.966,22.261,22.261v77.913H512z"/>
<path style="fill:#FFD880;" d="M200.348,22.261v77.913H66.783V22.261C66.783,9.966,76.749,0,89.043,0h89.043
	C190.382,0,200.348,9.966,200.348,22.261z"/>
<path style="fill:#FCC159;" d="M178.087,38.957v22.261c0,6.147-4.983,11.13-11.13,11.13h-66.783c-6.147,0-11.13-4.983-11.13-11.13
	V38.957c0-6.147,4.983-11.13,11.13-11.13h66.783C173.104,27.826,178.087,32.809,178.087,38.957z"/>
<path style="fill:#BF5243;" d="M434.087,166.957h-69.565c0-19.946-16.228-36.174-36.174-36.174
	c-19.946,0-36.174,16.228-36.174,36.174H77.913c-12.295,0-22.261,9.966-22.261,22.261v189.217c0,12.295,9.966,22.261,22.261,22.261
	h356.174c12.295,0,22.261-9.966,22.261-22.261V189.217C456.348,176.923,446.382,166.957,434.087,166.957z M308.87,166.957
	c0-10.74,8.739-19.478,19.478-19.478s19.478,8.738,19.478,19.478H308.87z"/>
<path style="fill:#FC8059;" d="M456.348,283.826v94.609c0,12.295-9.966,22.261-22.261,22.261H77.913
	c-12.295,0-22.261-9.966-22.261-22.261v-94.609H456.348z"/>
<path style="fill:#FED766;" d="M389.565,512H267.13c-12.295,0-22.261-9.966-22.261-22.261V267.914c0-7.443,3.72-14.394,9.913-18.522
	L316,208.58c7.477-4.985,17.219-4.985,24.696,0l61.217,40.812c6.193,4.128,9.913,11.079,9.913,18.522v221.825
	C411.826,502.034,401.86,512,389.565,512z"/>
<path style="fill:#AD8653;" d="M350.609,267.13c0,12.295-9.966,22.261-22.261,22.261s-22.261-9.966-22.261-22.261
	c0-12.295,9.966-22.261,22.261-22.261S350.609,254.836,350.609,267.13z"/>
<path style="fill:#256277;" d="M336.696,267.13c0,4.61-3.738,8.348-8.348,8.348c-19.946,0-36.174-16.228-36.174-36.174v-72.348
	c0-19.946,16.228-36.174,36.174-36.174c19.946,0,36.174,16.228,36.174,36.174h-16.696c0-10.74-8.739-19.478-19.478-19.478
	s-19.478,8.738-19.478,19.478v72.348c0,10.74,8.739,19.478,19.478,19.478C332.958,258.783,336.696,262.52,336.696,267.13z"/>
<g>
</g>
<g>
</g>
<g>
</g>
<g>
</g>
<g>
</g>
<g>
</g>
<g>
</g>
<g>
</g>
<g>
</g>
<g>
</g>
<g>
</g>
<g>
</g>
<g>
</g>
<g>
</g>
<g>
</g>
</svg>
